<?xml version="1.0" encoding="iso-8859-1"?>
<!-- Generator: Adobe Illustrator 19.0.0, SVG Export Plug-In . SVG Version: 6.00 Build 0)  -->
<svg version="1.1" id="Layer_1" xmlns="http://www.w3.org/2000/svg" xmlns:xlink="http://www.w3.org/1999/xlink" x="0px" y="0px"
	viewBox="0 0 492 492" style="enable-background:new 0 0 492 492;" xml:space="preserve">
	<symbol id="left" viewBox="0 0 492 492">
		<path style="fill:#fff;" d="M0 0v492h492V0H0zM199 246 382 430C388 435 391 442 391 449 391 456 388 463 382 468L366 484C361 489 355 492 347 492 340 492 333 489 328 484L109 265C104 260 101 253 101 246 101 239 104 232 109 227L328 8C334 3 340 0 347 0 355 0 361 3 367 8L383 24C388 29 391 36 391 43 391 50 388 57 383 62z"/>
	</symbol>
	
	<symbol id="right" viewBox="0 0 492 492">
		<path style="fill:#fff;" d="M492 0v492h-492V0H492zM293 246 110 430C104 435 101 442 101 449 101 456 104 463 110 468L126 484C131 489 137 492 145 492 152 492 159 489 164 484L383 265C388 260 391 253 391 246 391 239 388 232 383 227L164 8C158 3 152 0 145 0 137 0 131 3 125 8L109 24C104 29 101 36 101 43 101 50 104 57 109 62z"/>
	</symbol>
</svg>
