<?xml version="1.0" encoding="iso-8859-1"?>
<!-- Generator: Adobe Illustrator 19.0.0, SVG Export Plug-In . SVG Version: 6.00 Build 0)  -->
<svg version="1.1" id="Layer_1" xmlns="http://www.w3.org/2000/svg" xmlns:xlink="http://www.w3.org/1999/xlink" x="0px" y="0px" style="enable-background:new 0 0 492 492;" xml:space="preserve">
	<symbol id="arrow-left" viewBox="0 0 492 492">
		<path style="fill:#fff;" d="M0 0v492h492V0H0zM199 246 382 430C388 435 391 442 391 449 391 456 388 463 382 468L366 484C361 489 355 492 347 492 340 492 333 489 328 484L109 265C104 260 101 253 101 246 101 239 104 232 109 227L328 8C334 3 340 0 347 0 355 0 361 3 367 8L383 24C388 29 391 36 391 43 391 50 388 57 383 62z"/>
	</symbol>
	
	<symbol id="arrow-right" viewBox="0 0 492 492">
		<path style="fill:#fff;" d="M492 0v492h-492V0H492zM293 246 110 430C104 435 101 442 101 449 101 456 104 463 110 468L126 484C131 489 137 492 145 492 152 492 159 489 164 484L383 265C388 260 391 253 391 246 391 239 388 232 383 227L164 8C158 3 152 0 145 0 137 0 131 3 125 8L109 24C104 29 101 36 101 43 101 50 104 57 109 62z"/>
	</symbol>

	<symbol id="hand-default" viewBox="0 0 100 100">
		<path fill="#000" d="M59.708 94.875C47.519 94.875 41.431 88.754 34.382 81.664L33.157 80.435C25.714 72.992 20.505 67.173 20.453 67.117 18.961 65.627 18.113 63.564 18.124 61.367 18.135 59.179 18.995 57.121 20.545 55.572 22.095 54.021 24.151 53.167 26.335 53.167S30.575 54.021 32.125 55.572L37.972 61.654 38.011 19.373C38.011 15.099 41.045 11.874 45.069 11.874 49.122 11.874 52.178 15.099 52.178 19.374V37.446C53.626 36.41 55.427 35.874 57.178 35.874 60.189 35.874 62.762 37.785 63.748 40.458 64.955 39.469 66.498 38.874 68.178 38.874 71.817 38.874 74.816 41.665 75.148 45.219 75.875 44.99 76.584 44.874 77.073 44.874 80.378 44.874 82.967 47.51 82.967 50.874 82.967 51.889 82.931 75.8 79.809 82.044 76.563 88.537 72.337 94.875 59.708 94.875Z"/>
		<path fill="#fff" d="M26.335 56.168C24.952 56.168 23.649 56.709 22.666 57.693 21.679 58.679 21.131 59.99 21.124 61.382 21.117 62.771 21.652 64.075 22.632 65.056 22.741 65.173 27.899 70.933 35.278 78.314L36.509 79.548C43.357 86.435 48.765 91.874 59.707 91.874 70.648 91.874 74.067 86.815 77.123 80.702 79.453 76.042 79.965 57.591 79.965 50.873 79.965 49.19 78.694 47.873 77.071 47.873 76.467 47.873 75.618 48.196 75.176 48.453V52.373C75.176 53.201 74.504 53.873 73.676 53.873S72.176 53.201 72.176 52.373V45.873C72.176 43.667 70.382 41.873 68.176 41.873S64.176 43.667 64.176 45.873V48.373C64.176 49.201 63.504 49.873 62.676 49.873S61.176 49.201 61.176 48.373V42.873C61.176 40.667 59.382 38.873 57.176 38.873 55.166 38.873 52.176 40.071 52.176 43.373V47.373C52.176 48.201 51.504 48.873 50.676 48.873S49.176 48.201 49.176 47.373V19.373C49.176 16.766 47.447 14.873 45.067 14.873 42.715 14.873 41.009 16.766 41.009 19.373L40.967 65.373C40.966 65.986 40.594 66.535 40.027 66.764 39.46 66.994 38.809 66.854 38.386 66.412L29.982 57.67C29.021 56.709 27.718 56.168 26.335 56.168Z"/>
	</symbol>

	<symbol id="hand-press" viewBox="0 0 100 100">
		<path fill="#000" d="M76.482,44.875c-0.407,0-1.44,0.14-2.502,0.47c-0.271-3.613-3.299-6.47-6.98-6.47  c-1.68,0-3.223,0.594-4.43,1.584c-0.986-2.673-3.56-4.584-6.57-4.584c-1.751,0-3.552,0.536-5,1.572v-7.268  c4.148-2.306,6.965-6.73,6.965-11.804c0-7.444-6.056-13.5-13.5-13.5s-13.5,6.056-13.5,13.5c0,4.994,2.732,9.354,6.775,11.688  l0.071,31.554l-5.76-6.045c-1.55-1.551-3.6-2.405-5.772-2.405s-4.223,0.854-5.772,2.405c-3.204,3.203-3.211,8.41-0.072,11.545  c0.052,0.059,5.269,5.875,12.712,13.318l1.211,1.215c7.058,7.096,13.152,13.225,25.35,13.225c12.629,0,16.854-6.338,20.1-12.83  c3.122-6.244,3.158-30.156,3.158-31.17C82.965,47.678,79.936,44.875,76.482,44.875z"/>
		<path fill="#fff" d="
			M40.716,19.406
			c0-2.076,0.985-4.516,3.763-4.516
			c3.268,0,3.521,3.429,3.521,4.484
			v28c0,0.829,0.672,1.5,1.5,1.5
			s1.5-0.671,1.5-1.5
			v-4c0-3.302,2.99-4.5,5-4.5
			c2.206,0,4,1.794,4,4
			v5.5c0,0.829,0.672,1.5,1.5,1.5
			s1.5-0.671,1.5-1.5
			v-2.5
			c0-2.206,1.794-4,4-4
			s4,1.794,4,4
			v6.5
			c0,0.828,0.672,1.5,1.5,1.5
			s1.5-0.672,1.5-1.5
			v-3.82
			c0.6-0.292,1.776-0.681,2.482-0.681
			c1.79,0,3.482,1.458,3.482,3
			c0,6.716-0.512,25.168-2.842,29.829
			c-3.056,6.112-6.475,11.172-17.416,11.172
			c-10.95,0-16.366-5.445-23.223-12.34
			l-1.217-1.221
			c-7.381-7.381-12.547-13.141-12.655-13.258
			c-0.981-0.982-1.521-2.289-1.518-3.679
			c0.004-1.392,0.548-2.7,1.533-3.685
			c0.983-0.984,2.28-1.526,3.651-1.526
			s2.667,0.542,3.625,1.5l8.33,8.742
			c0.426,0.446,1.079,0.585,1.645,0.357
			c0.57-0.229,0.942-0.782,0.941-1.396
			L40.716,19.406z"/>
	</symbol>
</svg>
