<?xml version="1.0" encoding="iso-8859-1"?>
<!-- Generator: Adobe Illustrator 19.0.0, SVG Export Plug-In . SVG Version: 6.00 Build 0)  -->
<svg version="1.1" id="Layer_1" xmlns="http://www.w3.org/2000/svg" xmlns:xlink="http://www.w3.org/1999/xlink" x="0px" y="0px" style="enable-background:new 0 0 492 492;" xml:space="preserve">
	<symbol id="calculator" viewBox="0 0 245 245">
		<path fill="#444" d="M204.95 0H40.05C34 0 29.15 4.85 29.15 10.9v223.2c0 6.05 4.85 10.9 10.9 10.9h164.9c6.05 0 10.9-4.85 10.9-10.9V10.9C215.85 4.85 210.95 0 204.95 0zM69.8 221.3c-7.95 0-14.6-6.4-14.6-14.6 0-7.95 6.4-14.6 14.6-14.6s14.6 6.4 14.6 14.6C84.4 214.85 77.8 221.3 69.8 221.3zM69.8 173.25c-7.95 0-14.6-6.4-14.6-14.6 0-8.15 6.4-14.6 14.6-14.6s14.6 6.4 14.6 14.6S77.8 173.25 69.8 173.25zM69.8 125.05c-7.95 0-14.6-6.4-14.6-14.6s6.4-14.6 14.6-14.6 14.6 6.4 14.6 14.6S77.8 125.05 69.8 125.05zM122.5 221.3c-7.95 0-14.6-6.4-14.6-14.6 0-7.95 6.4-14.6 14.6-14.6 8.15 0 14.6 6.4 14.6 14.6C137.1 214.85 130.45 221.3 122.5 221.3zM122.5 173.25c-7.95 0-14.6-6.4-14.6-14.6 0-8.15 6.4-14.6 14.6-14.6 8.15 0 14.6 6.4 14.6 14.6S130.45 173.25 122.5 173.25zM122.5 125.05c-7.95 0-14.6-6.4-14.6-14.6s6.4-14.6 14.6-14.6c8.15 0 14.6 6.4 14.6 14.6S130.45 125.05 122.5 125.05zM175.2 221.3c-7.95 0-14.6-6.4-14.6-14.6 0-7.95 6.4-14.6 14.6-14.6s14.6 6.4 14.6 14.6C189.6 214.85 183.15 221.3 175.2 221.3zM175.2 173.25c-7.95 0-14.6-6.4-14.6-14.6 0-8.15 6.4-14.6 14.6-14.6s14.6 6.4 14.6 14.6S183.15 173.25 175.2 173.25zM175.2 125.05c-7.95 0-14.6-6.4-14.6-14.6s6.4-14.6 14.6-14.6 14.6 6.4 14.6 14.6S183.15 125.05 175.2 125.05zM190.75 70.95h-136.5V23.7h136.7v47.25H190.75z"/>
	</symbol>

	<symbol id="trash" viewBox="0 0 245 245">
		<path fill="#444" d="M226.948 35.46H166.02V26.756c0-14.421-11.691-26.112-26.112-26.112H105.092c-14.421 0-26.112 11.691-26.112 26.112v8.704H18.052c-4.807 0-8.704 3.897-8.704 8.704S13.245 52.868 18.052 52.868h9.461l16.651 183.576c.411 4.495 4.19 7.93 8.704 7.912h139.264c4.514.019 8.293-3.416 8.704-7.912L217.487 52.868h9.462c4.807 0 8.704-3.897 8.704-8.704S231.755 35.46 226.948 35.46zM96.388 26.756c0-4.807 3.897-8.704 8.704-8.704h34.816c4.807 0 8.704 3.897 8.704 8.704v8.704h-52.224V26.756zM88.346 209.537c-.015.001-.029.002-.044.003h-.618c-4.576.012-8.379-3.522-8.704-8.086l-8.704-121.856c-.341-4.807 3.279-8.981 8.086-9.322 4.807-.341 8.981 3.279 9.322 8.086l8.704 121.856C96.741 205.012 93.14 209.184 88.346 209.537zM131.204 200.836c0 4.807-3.897 8.704-8.704 8.704s-8.704-3.897-8.704-8.704V78.98c0-4.807 3.897-8.704 8.704-8.704S131.204 74.173 131.204 78.98V200.836zM174.724 79.598l-8.704 121.856c-.325 4.564-4.128 8.098-8.704 8.086h-.627c-4.796-.333-8.413-4.491-8.08-9.286.001-.012.002-.024.003-.036L157.316 78.362c.341-4.807 4.515-8.427 9.322-8.086C171.445 70.617 175.065 74.791 174.724 79.598z"/>
	</symbol>

	<symbol id="flag-ru" viewBox="0 0 512 512">
		<circle fill="#F0F0F0" cx="256" cy="256" r="256"/>
		<path fill="#0052B4" d="M496.077,345.043C506.368,317.31,512,287.314,512,256s-5.632-61.31-15.923-89.043H15.923
	C5.633,194.69,0,224.686,0,256s5.633,61.31,15.923,89.043L256,367.304L496.077,345.043z"/>
		<path fill="#D80027" d="M256,512c110.071,0,203.906-69.472,240.077-166.957H15.923C52.094,442.528,145.929,512,256,512z"/>
	</symbol>

	<symbol id="flag-en" viewBox="0 0 512 512">
		<circle fill="#F0F0F0" cx="256" cy="256" r="256"/>
		<g>
			<path fill="#D80027" d="M244.87,256H512c0-23.106-3.08-45.49-8.819-66.783H244.87V256z"/>
			<path fill="#D80027" d="M244.87,122.435h229.556c-15.671-25.572-35.708-48.175-59.07-66.783H244.87V122.435z"/>
			<path fill="#D80027" d="M256,512c60.249,0,115.626-20.824,159.356-55.652H96.644C140.374,491.176,195.751,512,256,512z"/>
			<path fill="#D80027" d="M37.574,389.565h436.852c12.581-20.529,22.338-42.969,28.755-66.783H8.819
				C15.236,346.596,24.993,369.036,37.574,389.565z"/>
		</g>
		<path fill="#0052B4" d="M118.584 39.978h23.329l-21.7 15.765 8.289 25.509-21.699-15.765L85.104 81.252l7.16-22.037C73.158 75.13 56.412 93.776 42.612 114.552h7.475l-13.813 10.035c-2.152 3.59-4.216 7.237-6.194 10.938l6.596 20.301-12.306-8.941c-3.059 6.481-5.857 13.108-8.372 19.873l7.267 22.368h26.822l-21.7 15.765 8.289 25.509-21.699-15.765-12.998 9.444C.678 234.537 0 245.189 0 256h256c0-141.384 0-158.052 0-256C205.428 0 158.285 14.67 118.584 39.978zM128.502 230.4l-21.699-15.765L85.104 230.4l8.289-25.509-21.7-15.765h26.822l8.288-25.509 8.288 25.509h26.822l-21.7 15.765L128.502 230.4zM120.213 130.317l8.289 25.509-21.699-15.765-21.699 15.765 8.289-25.509-21.7-15.765h26.822l8.288-25.509 8.288 25.509h26.822L120.213 130.317zM220.328 230.4l-21.699-15.765L176.93 230.4l8.289-25.509-21.7-15.765h26.822l8.288-25.509 8.288 25.509h26.822l-21.7 15.765L220.328 230.4zM212.039 130.317l8.289 25.509-21.699-15.765-21.699 15.765 8.289-25.509-21.7-15.765h26.822l8.288-25.509 8.288 25.509h26.822L212.039 130.317zM212.039 55.743l8.289 25.509-21.699-15.765L176.93 81.252l8.289-25.509-21.7-15.765h26.822l8.288-25.509 8.288 25.509h26.822L212.039 55.743z"/>
	</symbol>

	<symbol id="hand-default" viewBox="0 0 100 100">
		<path fill="#000" d="M59.708 94.875C47.519 94.875 41.431 88.754 34.382 81.664L33.157 80.435C25.714 72.992 20.505 67.173 20.453 67.117 18.961 65.627 18.113 63.564 18.124 61.367 18.135 59.179 18.995 57.121 20.545 55.572 22.095 54.021 24.151 53.167 26.335 53.167S30.575 54.021 32.125 55.572L37.972 61.654 38.011 19.373C38.011 15.099 41.045 11.874 45.069 11.874 49.122 11.874 52.178 15.099 52.178 19.374V37.446C53.626 36.41 55.427 35.874 57.178 35.874 60.189 35.874 62.762 37.785 63.748 40.458 64.955 39.469 66.498 38.874 68.178 38.874 71.817 38.874 74.816 41.665 75.148 45.219 75.875 44.99 76.584 44.874 77.073 44.874 80.378 44.874 82.967 47.51 82.967 50.874 82.967 51.889 82.931 75.8 79.809 82.044 76.563 88.537 72.337 94.875 59.708 94.875Z"/>
		<path fill="#fff" d="M26.335 56.168C24.952 56.168 23.649 56.709 22.666 57.693 21.679 58.679 21.131 59.99 21.124 61.382 21.117 62.771 21.652 64.075 22.632 65.056 22.741 65.173 27.899 70.933 35.278 78.314L36.509 79.548C43.357 86.435 48.765 91.874 59.707 91.874 70.648 91.874 74.067 86.815 77.123 80.702 79.453 76.042 79.965 57.591 79.965 50.873 79.965 49.19 78.694 47.873 77.071 47.873 76.467 47.873 75.618 48.196 75.176 48.453V52.373C75.176 53.201 74.504 53.873 73.676 53.873S72.176 53.201 72.176 52.373V45.873C72.176 43.667 70.382 41.873 68.176 41.873S64.176 43.667 64.176 45.873V48.373C64.176 49.201 63.504 49.873 62.676 49.873S61.176 49.201 61.176 48.373V42.873C61.176 40.667 59.382 38.873 57.176 38.873 55.166 38.873 52.176 40.071 52.176 43.373V47.373C52.176 48.201 51.504 48.873 50.676 48.873S49.176 48.201 49.176 47.373V19.373C49.176 16.766 47.447 14.873 45.067 14.873 42.715 14.873 41.009 16.766 41.009 19.373L40.967 65.373C40.966 65.986 40.594 66.535 40.027 66.764 39.46 66.994 38.809 66.854 38.386 66.412L29.982 57.67C29.021 56.709 27.718 56.168 26.335 56.168Z"/>
	</symbol>

	<symbol id="hand-press" viewBox="0 0 100 100">
		<path fill="#000" d="M76.482,44.875c-0.407,0-1.44,0.14-2.502,0.47c-0.271-3.613-3.299-6.47-6.98-6.47  c-1.68,0-3.223,0.594-4.43,1.584c-0.986-2.673-3.56-4.584-6.57-4.584c-1.751,0-3.552,0.536-5,1.572v-7.268  c4.148-2.306,6.965-6.73,6.965-11.804c0-7.444-6.056-13.5-13.5-13.5s-13.5,6.056-13.5,13.5c0,4.994,2.732,9.354,6.775,11.688  l0.071,31.554l-5.76-6.045c-1.55-1.551-3.6-2.405-5.772-2.405s-4.223,0.854-5.772,2.405c-3.204,3.203-3.211,8.41-0.072,11.545  c0.052,0.059,5.269,5.875,12.712,13.318l1.211,1.215c7.058,7.096,13.152,13.225,25.35,13.225c12.629,0,16.854-6.338,20.1-12.83  c3.122-6.244,3.158-30.156,3.158-31.17C82.965,47.678,79.936,44.875,76.482,44.875z"/>
		<path fill="#fff" d="M40.716 19.406c0-2.076.985-4.516 3.763-4.516 3.268 0 3.521 3.429 3.521 4.484v28c0 .829.672 1.5 1.5 1.5s1.5-.671 1.5-1.5v-4c0-3.302 2.99-4.5 5-4.5 2.206 0 4 1.794 4 4v5.5c0 .829.672 1.5 1.5 1.5s1.5-.671 1.5-1.5v-2.5c0-2.206 1.794-4 4-4s4 1.794 4 4v6.5c0 .828.672 1.5 1.5 1.5s1.5-.672 1.5-1.5v-3.82c.6-.292 1.776-.681 2.482-.681 1.79 0 3.482 1.458 3.482 3 0 6.716-.512 25.168-2.842 29.829-3.056 6.112-6.475 11.172-17.416 11.172-10.95 0-16.366-5.445-23.223-12.34l-1.217-1.221c-7.381-7.381-12.547-13.141-12.655-13.258-.981-.982-1.521-2.289-1.518-3.679.004-1.392.548-2.7 1.533-3.685.983-.984 2.28-1.526 3.651-1.526s2.667.542 3.625 1.5l8.33 8.742c.426.446 1.079.585 1.645.357 .57-.229.942-.782.941-1.396L40.716 19.406z"/>
	</symbol>

	<symbol id="loading" viewBox="0 0 172 172">
		<path fill="#444" d="M167.243 18.732c-3.376-.724-6.698 1.427-7.421 4.802l-4.542 21.195C140.819 20.059 114.276 4.578 85.184 4.578c-44.801 0-81.25 36.448-81.25 81.25 0 3.451 2.798 6.25 6.25 6.25 3.451 0 6.25-2.799 6.25-6.25 0-37.909 30.841-68.75 68.75-68.75 24.715 0 47.257 13.202 59.463 34.222l-20.837-4.465c-3.376-.724-6.698 1.427-7.421 4.802-.723 3.375 1.427 6.698 4.802 7.421l35.768 7.665c.607.13 1.225.168 1.833.117 1.013-.085 2.001-.418 2.871-.981 1.392-.9 2.369-2.317 2.716-3.937l7.666-35.768C172.768 22.778 170.618 19.456 167.243 18.732zM160.954 77.636c-3.45.114-6.155 3.003-6.041 6.453.606 18.354-5.971 35.845-18.521 49.252-12.549 13.406-29.568 21.124-47.922 21.73-.765.025-1.526.037-2.288.037-23.948-.001-46.009-12.439-58.468-32.59l21.724 5.825c3.334.893 6.761-1.084 7.656-4.418.894-3.334-1.084-6.761-4.418-7.656l-35.332-9.473c-1.601-.428-3.308-.204-4.742.624-1.436.828-2.483 2.194-2.913 3.794L.215 146.546c-.894 3.334 1.084 6.761 4.418 7.655.542 .145 1.087.215 1.622.215 2.759 0 5.284-1.842 6.033-4.633l5.325-19.858c14.812 23.323 40.595 37.684 68.566 37.683.898 0 1.802-.014 2.704-.044 21.691-.717 41.804-9.837 56.635-25.681s22.605-36.515 21.888-58.207C167.293 80.227 164.403 77.513 160.954 77.636z"/>
	</symbol>
</svg>