<?xml version="1.0" encoding="iso-8859-1"?>
<!-- Generator: Adobe Illustrator 19.0.0, SVG Export Plug-In . SVG Version: 6.00 Build 0)  -->
<svg version="1.1" xmlns="http://www.w3.org/2000/svg" xmlns:xlink="http://www.w3.org/1999/xlink" x="0px" y="0px" style="enable-background:new 0 0 490 490;" xml:space="preserve">
	<symbol id="calculator" viewBox="0 0 490 490">
		<path d="M409.9,0H80.1C68,0,58.3,9.7,58.3,21.8v446.4c0,12.1,9.7,21.8,21.8,21.8h329.8c12.1,0,21.8-9.7,21.8-21.8V21.8
			C431.7,9.7,421.9,0,409.9,0z M139.6,442.6c-15.9,0-29.2-12.8-29.2-29.2c0-15.9,12.8-29.2,29.2-29.2s29.2,12.8,29.2,29.2
			C168.8,429.7,155.6,442.6,139.6,442.6z M139.6,346.5c-15.9,0-29.2-12.8-29.2-29.2c0-16.3,12.8-29.2,29.2-29.2
			s29.2,12.8,29.2,29.2S155.6,346.5,139.6,346.5z M139.6,250.1c-15.9,0-29.2-12.8-29.2-29.2s12.8-29.2,29.2-29.2
			s29.2,12.8,29.2,29.2S155.6,250.1,139.6,250.1z M245,442.6c-15.9,0-29.2-12.8-29.2-29.2c0-15.9,12.8-29.2,29.2-29.2
			c16.3,0,29.2,12.8,29.2,29.2C274.2,429.7,260.9,442.6,245,442.6z M245,346.5c-15.9,0-29.2-12.8-29.2-29.2
			c0-16.3,12.8-29.2,29.2-29.2c16.3,0,29.2,12.8,29.2,29.2S260.9,346.5,245,346.5z M245,250.1c-15.9,0-29.2-12.8-29.2-29.2
			s12.8-29.2,29.2-29.2c16.3,0,29.2,12.8,29.2,29.2S260.9,250.1,245,250.1z M350.4,442.6c-15.9,0-29.2-12.8-29.2-29.2
			c0-15.9,12.8-29.2,29.2-29.2s29.2,12.8,29.2,29.2C379.2,429.7,366.3,442.6,350.4,442.6z M350.4,346.5
			c-15.9,0-29.2-12.8-29.2-29.2c0-16.3,12.8-29.2,29.2-29.2s29.2,12.8,29.2,29.2S366.3,346.5,350.4,346.5z M350.4,250.1
			c-15.9,0-29.2-12.8-29.2-29.2s12.8-29.2,29.2-29.2s29.2,12.8,29.2,29.2S366.3,250.1,350.4,250.1z M381.5,141.9h-273V47.4h273.4
			v94.5H381.5z"/>
	</symbol>
	<symbol id="trash" viewBox="0 0 477.867 477.867">
		<path d="M443.733,68.267H324.267V51.2c0-28.277-22.923-51.2-51.2-51.2H204.8c-28.277,0-51.2,22.923-51.2,51.2v17.067H34.133
			c-9.426,0-17.067,7.641-17.067,17.067S24.708,102.4,34.133,102.4h18.551l32.649,359.953c0.805,8.814,8.216,15.55,17.067,15.514
			h273.067c8.851,0.037,16.261-6.699,17.067-15.514L425.182,102.4h18.552c9.426,0,17.067-7.641,17.067-17.067
			S453.159,68.267,443.733,68.267z M187.733,51.2c0-9.426,7.641-17.067,17.067-17.067h68.267c9.426,0,17.067,7.641,17.067,17.067
			v17.067h-102.4V51.2z M171.964,409.594c-0.029,0.002-0.057,0.004-0.086,0.006h-1.212c-8.972,0.023-16.43-6.906-17.067-15.855
			l-17.067-238.933c-0.669-9.426,6.429-17.609,15.855-18.278c9.426-0.669,17.609,6.429,18.278,15.855l17.067,238.933
			C188.425,400.722,181.365,408.903,171.964,409.594z M256,392.533c0,9.426-7.641,17.067-17.067,17.067s-17.067-7.641-17.067-17.067
			V153.6c0-9.426,7.641-17.067,17.067-17.067S256,144.174,256,153.6V392.533z M341.333,154.812l-17.067,238.933
			c-0.637,8.949-8.095,15.878-17.067,15.855h-1.229c-9.403-0.653-16.496-8.805-15.843-18.208c0.002-0.023,0.003-0.047,0.005-0.07
			L307.2,152.388c0.669-9.426,8.853-16.524,18.278-15.855C334.904,137.203,342.003,145.386,341.333,154.812z"/>
	</symbol>
</svg>
